<svg version="1.1" viewBox="0.0 0.0 1008.0 624.0" fill="none" stroke="none" stroke-linecap="square" stroke-miterlimit="10" width="1008" height="624" xmlns:xlink="http://www.w3.org/1999/xlink" xmlns="http://www.w3.org/2000/svg"><path fill="#ffffff" d="M0 0L1008.0 0L1008.0 624.0L0 624.0L0 0Z" fill-rule="nonzero"/><path stroke="#cccccc" stroke-width="1.0" stroke-linecap="butt" d="M90.5 38.5L90.5 540.5" fill-rule="nonzero"/><path stroke="#cccccc" stroke-width="1.0" stroke-linecap="butt" d="M311.5 38.5L311.5 540.5" fill-rule="nonzero"/><path stroke="#cccccc" stroke-width="1.0" stroke-linecap="butt" d="M533.5 38.5L533.5 540.5" fill-rule="nonzero"/><path stroke="#cccccc" stroke-width="1.0" stroke-linecap="butt" d="M755.5 38.5L755.5 540.5" fill-rule="nonzero"/><path stroke="#cccccc" stroke-width="1.0" stroke-linecap="butt" d="M976.5 38.5L976.5 540.5" fill-rule="nonzero"/><path stroke="#333333" stroke-width="1.0" stroke-linecap="butt" d="M90.5 540.5L976.5 540.5" fill-rule="nonzero"/><path stroke="#cccccc" stroke-width="1.0" stroke-linecap="butt" d="M90.5 415.5L976.5 415.5" fill-rule="nonzero"/><path stroke="#cccccc" stroke-width="1.0" stroke-linecap="butt" d="M90.5 289.5L976.5 289.5" fill-rule="nonzero"/><path stroke="#cccccc" stroke-width="1.0" stroke-linecap="butt" d="M90.5 163.5L976.5 163.5" fill-rule="nonzero"/><path stroke="#cccccc" stroke-width="1.0" stroke-linecap="butt" d="M90.5 38.5L976.5 38.5" fill-rule="nonzero"/><clipPath id="id_0"><path d="M90.2 38.2L976.8 38.2L976.8 540.8L90.2 540.8L90.2 38.2Z" clip-rule="nonzero"/></clipPath><path stroke="#4285f4" stroke-width="2.0" stroke-linecap="butt" clip-path="url(#id_0)" d="M976.8 38.2L965.7175 38.2L954.635 38.2L943.5525 38.2L932.47 38.2L921.3875 38.2L910.305 38.2L899.2225 38.2L888.14 38.2L877.0575 38.2L865.975 38.2L854.8925 38.2L843.81 43.226L832.7275 43.226L821.645 43.226L810.5625 48.252L799.48 48.252L788.3975 53.278L777.315 53.278L766.2325 58.304L755.15 63.33L744.0675 63.33L732.985 68.356L721.9025 73.382L710.82 78.408L699.7375 83.434L688.655 88.46L677.5725 93.486L666.49 98.512L655.4075 103.538L644.325 108.564L633.2425 113.59L622.16 118.616L611.0775 123.642L599.995 128.668L588.9125 138.72L577.83 143.746L566.7475 148.772L555.665 158.824L544.5825 163.85L533.5 173.902L522.4175 178.928L511.335 188.98L500.2525 194.006L489.17 204.058L478.0875 214.11L467.005 219.136L455.9225 229.188L444.84 239.24L433.7575 249.292L422.675 259.344L411.5925 269.396L400.51 279.448L389.4275 289.5L378.345 299.552L367.2625 309.604L356.18 319.656L345.0975 329.708L334.015 339.76L322.9325 354.838L311.85 364.89L300.7675 374.942L289.685 390.02L278.6025 400.072L267.52 410.124L256.4375 425.202L245.355 440.28L234.2725 450.332L223.19 465.41L212.1075 475.462L201.025 490.54L189.9425 505.618L178.86 520.696L167.7775 535.774L156.695 540.8L145.6125 540.8L134.53 540.8L123.4475 540.8L112.365 540.8L101.2825 540.8L90.2 540.8" fill-rule="nonzero"/><path fill="#000000" fill-opacity="0.0" clip-path="url(#id_0)" d="M979.8 38.2C979.8 39.856853 978.45685 41.2 976.8 41.2C975.1431 41.2 973.8 39.856853 973.8 38.2C973.8 36.543144 975.1431 35.2 976.8 35.2C978.45685 35.2 979.8 36.543144 979.8 38.2Z" fill-rule="nonzero"/><path fill="#000000" fill-opacity="0.0" clip-path="url(#id_0)" d="M968.7175 38.2C968.7175 39.856853 967.3743 41.2 965.7175 41.2C964.06067 41.2 962.7175 39.856853 962.7175 38.2C962.7175 36.543144 964.06067 35.2 965.7175 35.2C967.3743 35.2 968.7175 36.543144 968.7175 38.2Z" fill-rule="nonzero"/><path fill="#000000" fill-opacity="0.0" clip-path="url(#id_0)" d="M957.635 38.2C957.635 39.856853 956.2919 41.2 954.635 41.2C952.97815 41.2 951.635 39.856853 951.635 38.2C951.635 36.543144 952.97815 35.2 954.635 35.2C956.2919 35.2 957.635 36.543144 957.635 38.2Z" fill-rule="nonzero"/><path fill="#000000" fill-opacity="0.0" clip-path="url(#id_0)" d="M946.5525 38.2C946.5525 39.856853 945.20935 41.2 943.5525 41.2C941.8956 41.2 940.5525 39.856853 940.5525 38.2C940.5525 36.543144 941.8956 35.2 943.5525 35.2C945.20935 35.2 946.5525 36.543144 946.5525 38.2Z" fill-rule="nonzero"/><path fill="#000000" fill-opacity="0.0" clip-path="url(#id_0)" d="M935.47 38.2C935.47 39.856853 934.12683 41.2 932.47 41.2C930.8132 41.2 929.47 39.856853 929.47 38.2C929.47 36.543144 930.8132 35.2 932.47 35.2C934.12683 35.2 935.47 36.543144 935.47 38.2Z" fill-rule="nonzero"/><path fill="#000000" fill-opacity="0.0" clip-path="url(#id_0)" d="M924.3875 38.2C924.3875 39.856853 923.0444 41.2 921.3875 41.2C919.73065 41.2 918.3875 39.856853 918.3875 38.2C918.3875 36.543144 919.73065 35.2 921.3875 35.2C923.0444 35.2 924.3875 36.543144 924.3875 38.2Z" fill-rule="nonzero"/><path fill="#000000" fill-opacity="0.0" clip-path="url(#id_0)" d="M913.305 38.2C913.305 39.856853 911.96185 41.2 910.305 41.2C908.64813 41.2 907.305 39.856853 907.305 38.2C907.305 36.543144 908.64813 35.2 910.305 35.2C911.96185 35.2 913.305 36.543144 913.305 38.2Z" fill-rule="nonzero"/><path fill="#000000" fill-opacity="0.0" clip-path="url(#id_0)" d="M902.2225 38.2C902.2225 39.856853 900.87933 41.2 899.2225 41.2C897.5657 41.2 896.2225 39.856853 896.2225 38.2C896.2225 36.543144 897.5657 35.2 899.2225 35.2C900.87933 35.2 902.2225 36.543144 902.2225 38.2Z" fill-rule="nonzero"/><path fill="#000000" fill-opacity="0.0" clip-path="url(#id_0)" d="M891.14 38.2C891.14 39.856853 889.7969 41.2 888.14 41.2C886.48315 41.2 885.14 39.856853 885.14 38.2C885.14 36.543144 886.48315 35.2 888.14 35.2C889.7969 35.2 891.14 36.543144 891.14 38.2Z" fill-rule="nonzero"/><path fill="#000000" fill-opacity="0.0" clip-path="url(#id_0)" d="M880.0575 38.2C880.0575 39.856853 878.71436 41.2 877.0575 41.2C875.40063 41.2 874.0575 39.856853 874.0575 38.2C874.0575 36.543144 875.40063 35.2 877.0575 35.2C878.71436 35.2 880.0575 36.543144 880.0575 38.2Z" fill-rule="nonzero"/><path fill="#000000" fill-opacity="0.0" clip-path="url(#id_0)" d="M868.975 38.2C868.975 39.856853 867.63184 41.2 865.975 41.2C864.3181 41.2 862.975 39.856853 862.975 38.2C862.975 36.543144 864.3181 35.2 865.975 35.2C867.63184 35.2 868.975 36.543144 868.975 38.2Z" fill-rule="nonzero"/><path fill="#000000" fill-opacity="0.0" clip-path="url(#id_0)" d="M857.8925 38.2C857.8925 39.856853 856.5494 41.2 854.8925 41.2C853.23566 41.2 851.8925 39.856853 851.8925 38.2C851.8925 36.543144 853.23566 35.2 854.8925 35.2C856.5494 35.2 857.8925 36.543144 857.8925 38.2Z" fill-rule="nonzero"/><path fill="#000000" fill-opacity="0.0" clip-path="url(#id_0)" d="M846.81 43.226C846.81 44.882854 845.46686 46.226 843.81 46.226C842.15314 46.226 840.81 44.882854 840.81 43.226C840.81 41.569145 842.15314 40.226 843.81 40.226C845.46686 40.226 846.81 41.569145 846.81 43.226Z" fill-rule="nonzero"/><path fill="#000000" fill-opacity="0.0" clip-path="url(#id_0)" d="M835.7275 43.226C835.7275 44.882854 834.38434 46.226 832.7275 46.226C831.0706 46.226 829.7275 44.882854 829.7275 43.226C829.7275 41.569145 831.0706 40.226 832.7275 40.226C834.38434 40.226 835.7275 41.569145 835.7275 43.226Z" fill-rule="nonzero"/><path fill="#000000" fill-opacity="0.0" clip-path="url(#id_0)" d="M824.645 43.226C824.645 44.882854 823.3019 46.226 821.645 46.226C819.98816 46.226 818.645 44.882854 818.645 43.226C818.645 41.569145 819.98816 40.226 821.645 40.226C823.3019 40.226 824.645 41.569145 824.645 43.226Z" fill-rule="nonzero"/><path fill="#000000" fill-opacity="0.0" clip-path="url(#id_0)" d="M813.5625 48.252C813.5625 49.908855 812.21936 51.252 810.5625 51.252C808.90564 51.252 807.5625 49.908855 807.5625 48.252C807.5625 46.595146 808.90564 45.252 810.5625 45.252C812.21936 45.252 813.5625 46.595146 813.5625 48.252Z" fill-rule="nonzero"/><path fill="#000000" fill-opacity="0.0" clip-path="url(#id_0)" d="M802.48 48.252C802.48 49.908855 801.13684 51.252 799.48 51.252C797.8231 51.252 796.48 49.908855 796.48 48.252C796.48 46.595146 797.8231 45.252 799.48 45.252C801.13684 45.252 802.48 46.595146 802.48 48.252Z" fill-rule="nonzero"/><path fill="#000000" fill-opacity="0.0" clip-path="url(#id_0)" d="M791.3975 53.278C791.3975 54.934853 790.0544 56.278 788.3975 56.278C786.74066 56.278 785.3975 54.934853 785.3975 53.278C785.3975 51.621147 786.74066 50.278 788.3975 50.278C790.0544 50.278 791.3975 51.621147 791.3975 53.278Z" fill-rule="nonzero"/><path fill="#000000" fill-opacity="0.0" clip-path="url(#id_0)" d="M780.315 53.278C780.315 54.934853 778.97186 56.278 777.315 56.278C775.65814 56.278 774.315 54.934853 774.315 53.278C774.315 51.621147 775.65814 50.278 777.315 50.278C778.97186 50.278 780.315 51.621147 780.315 53.278Z" fill-rule="nonzero"/><path fill="#000000" fill-opacity="0.0" clip-path="url(#id_0)" d="M769.2325 58.304C769.2325 59.960854 767.88934 61.304 766.2325 61.304C764.5756 61.304 763.2325 59.960854 763.2325 58.304C763.2325 56.647144 764.5756 55.304 766.2325 55.304C767.88934 55.304 769.2325 56.647144 769.2325 58.304Z" fill-rule="nonzero"/><path fill="#000000" fill-opacity="0.0" clip-path="url(#id_0)" d="M758.15 63.33C758.15 64.986855 756.8069 66.33 755.15 66.33C753.49316 66.33 752.15 64.986855 752.15 63.33C752.15 61.673145 753.49316 60.33 755.15 60.33C756.8069 60.33 758.15 61.673145 758.15 63.33Z" fill-rule="nonzero"/><path fill="#000000" fill-opacity="0.0" clip-path="url(#id_0)" d="M747.0675 63.33C747.0675 64.986855 745.72437 66.33 744.0675 66.33C742.41064 66.33 741.0675 64.986855 741.0675 63.33C741.0675 61.673145 742.41064 60.33 744.0675 60.33C745.72437 60.33 747.0675 61.673145 747.0675 63.33Z" fill-rule="nonzero"/><path fill="#000000" fill-opacity="0.0" clip-path="url(#id_0)" d="M735.985 68.356C735.985 70.012856 734.64185 71.356 732.985 71.356C731.3281 71.356 729.985 70.012856 729.985 68.356C729.985 66.69914 731.3281 65.356 732.985 65.356C734.64185 65.356 735.985 66.69914 735.985 68.356Z" fill-rule="nonzero"/><path fill="#000000" fill-opacity="0.0" clip-path="url(#id_0)" d="M724.9025 73.382C724.9025 75.03886 723.5593 76.382 721.9025 76.382C720.24567 76.382 718.9025 75.03886 718.9025 73.382C718.9025 71.72514 720.24567 70.382 721.9025 70.382C723.5593 70.382 724.9025 71.72514 724.9025 73.382Z" fill-rule="nonzero"/><path fill="#000000" fill-opacity="0.0" clip-path="url(#id_0)" d="M713.82 78.408C713.82 80.06486 712.47687 81.408 710.82 81.408C709.16315 81.408 707.82 80.06486 707.82 78.408C707.82 76.751144 709.16315 75.408 710.82 75.408C712.47687 75.408 713.82 76.751144 713.82 78.408Z" fill-rule="nonzero"/><path fill="#000000" fill-opacity="0.0" clip-path="url(#id_0)" d="M702.7375 83.434C702.7375 85.09085 701.39435 86.434 699.7375 86.434C698.0806 86.434 696.7375 85.09085 696.7375 83.434C696.7375 81.777145 698.0806 80.434 699.7375 80.434C701.39435 80.434 702.7375 81.777145 702.7375 83.434Z" fill-rule="nonzero"/><path fill="#000000" fill-opacity="0.0" clip-path="url(#id_0)" d="M691.655 88.46C691.655 90.11685 690.3118 91.46 688.655 91.46C686.99817 91.46 685.655 90.11685 685.655 88.46C685.655 86.80315 686.99817 85.46 688.655 85.46C690.3118 85.46 691.655 86.80315 691.655 88.46Z" fill-rule="nonzero"/><path fill="#000000" fill-opacity="0.0" clip-path="url(#id_0)" d="M680.5725 93.486C680.5725 95.14285 679.2294 96.486 677.5725 96.486C675.91565 96.486 674.5725 95.14285 674.5725 93.486C674.5725 91.82915 675.91565 90.486 677.5725 90.486C679.2294 90.486 680.5725 91.82915 680.5725 93.486Z" fill-rule="nonzero"/><path fill="#000000" fill-opacity="0.0" clip-path="url(#id_0)" d="M669.49 98.512C669.49 100.16885 668.14685 101.512 666.49 101.512C664.8331 101.512 663.49 100.16885 663.49 98.512C663.49 96.85515 664.8331 95.512 666.49 95.512C668.14685 95.512 669.49 96.85515 669.49 98.512Z" fill-rule="nonzero"/><path fill="#000000" fill-opacity="0.0" clip-path="url(#id_0)" d="M658.4075 103.538C658.4075 105.194855 657.06433 106.538 655.4075 106.538C653.7507 106.538 652.4075 105.194855 652.4075 103.538C652.4075 101.88115 653.7507 100.538 655.4075 100.538C657.06433 100.538 658.4075 101.88115 658.4075 103.538Z" fill-rule="nonzero"/><path fill="#000000" fill-opacity="0.0" clip-path="url(#id_0)" d="M647.325 108.564C647.325 110.220856 645.9819 111.564 644.325 111.564C642.66815 111.564 641.325 110.220856 641.325 108.564C641.325 106.90714 642.66815 105.564 644.325 105.564C645.9819 105.564 647.325 106.90714 647.325 108.564Z" fill-rule="nonzero"/><path fill="#000000" fill-opacity="0.0" clip-path="url(#id_0)" d="M636.2425 113.59C636.2425 115.24686 634.89935 116.59 633.2425 116.59C631.58563 116.59 630.2425 115.24686 630.2425 113.59C630.2425 111.93314 631.58563 110.59 633.2425 110.59C634.89935 110.59 636.2425 111.93314 636.2425 113.59Z" fill-rule="nonzero"/><path fill="#000000" fill-opacity="0.0" clip-path="url(#id_0)" d="M625.16 118.616C625.16 120.27286 623.81683 121.616 622.16 121.616C620.5032 121.616 619.16 120.27286 619.16 118.616C619.16 116.959145 620.5032 115.616 622.16 115.616C623.81683 115.616 625.16 116.959145 625.16 118.616Z" fill-rule="nonzero"/><path fill="#000000" fill-opacity="0.0" clip-path="url(#id_0)" d="M614.0775 123.642C614.0775 125.29885 612.7344 126.642 611.0775 126.642C609.42065 126.642 608.0775 125.29885 608.0775 123.642C608.0775 121.985146 609.42065 120.642 611.0775 120.642C612.7344 120.642 614.0775 121.985146 614.0775 123.642Z" fill-rule="nonzero"/><path fill="#000000" fill-opacity="0.0" clip-path="url(#id_0)" d="M602.995 128.668C602.995 130.32486 601.65186 131.668 599.995 131.668C598.33813 131.668 596.995 130.32486 596.995 128.668C596.995 127.01115 598.33813 125.668 599.995 125.668C601.65186 125.668 602.995 127.01115 602.995 128.668Z" fill-rule="nonzero"/><path fill="#000000" fill-opacity="0.0" clip-path="url(#id_0)" d="M591.9125 138.72C591.9125 140.37686 590.56934 141.72 588.9125 141.72C587.2556 141.72 585.9125 140.37686 585.9125 138.72C585.9125 137.06314 587.2556 135.72 588.9125 135.72C590.56934 135.72 591.9125 137.06314 591.9125 138.72Z" fill-rule="nonzero"/><path fill="#000000" fill-opacity="0.0" clip-path="url(#id_0)" d="M580.83 143.746C580.83 145.40285 579.4869 146.746 577.83 146.746C576.17316 146.746 574.83 145.40285 574.83 143.746C574.83 142.08914 576.17316 140.746 577.83 140.746C579.4869 140.746 580.83 142.08914 580.83 143.746Z" fill-rule="nonzero"/><path fill="#000000" fill-opacity="0.0" clip-path="url(#id_0)" d="M569.7475 148.772C569.7475 150.42885 568.40436 151.772 566.7475 151.772C565.09064 151.772 563.7475 150.42885 563.7475 148.772C563.7475 147.11514 565.09064 145.772 566.7475 145.772C568.40436 145.772 569.7475 147.11514 569.7475 148.772Z" fill-rule="nonzero"/><path fill="#000000" fill-opacity="0.0" clip-path="url(#id_0)" d="M558.665 158.824C558.665 160.48085 557.32184 161.824 555.665 161.824C554.0081 161.824 552.665 160.48085 552.665 158.824C552.665 157.16714 554.0081 155.824 555.665 155.824C557.32184 155.824 558.665 157.16714 558.665 158.824Z" fill-rule="nonzero"/><path fill="#000000" fill-opacity="0.0" clip-path="url(#id_0)" d="M547.5825 163.85C547.5825 165.50685 546.2394 166.85 544.5825 166.85C542.92566 166.85 541.5825 165.50685 541.5825 163.85C541.5825 162.19315 542.92566 160.85 544.5825 160.85C546.2394 160.85 547.5825 162.19315 547.5825 163.85Z" fill-rule="nonzero"/><path fill="#000000" fill-opacity="0.0" clip-path="url(#id_0)" d="M536.5 173.902C536.5 175.55885 535.15686 176.902 533.5 176.902C531.84314 176.902 530.5 175.55885 530.5 173.902C530.5 172.24515 531.84314 170.902 533.5 170.902C535.15686 170.902 536.5 172.24515 536.5 173.902Z" fill-rule="nonzero"/><path fill="#000000" fill-opacity="0.0" clip-path="url(#id_0)" d="M525.4175 178.928C525.4175 180.58485 524.07434 181.928 522.4175 181.928C520.7606 181.928 519.4175 180.58485 519.4175 178.928C519.4175 177.27115 520.7606 175.928 522.4175 175.928C524.07434 175.928 525.4175 177.27115 525.4175 178.928Z" fill-rule="nonzero"/><path fill="#000000" fill-opacity="0.0" clip-path="url(#id_0)" d="M514.335 188.98C514.335 190.63686 512.9919 191.98 511.335 191.98C509.67813 191.98 508.335 190.63686 508.335 188.98C508.335 187.32315 509.67813 185.98 511.335 185.98C512.9919 185.98 514.335 187.32315 514.335 188.98Z" fill-rule="nonzero"/><path fill="#000000" fill-opacity="0.0" clip-path="url(#id_0)" d="M503.2525 194.006C503.2525 195.66286 501.90936 197.006 500.2525 197.006C498.59564 197.006 497.2525 195.66286 497.2525 194.006C497.2525 192.34915 498.59564 191.006 500.2525 191.006C501.90936 191.006 503.2525 192.34915 503.2525 194.006Z" fill-rule="nonzero"/><path fill="#000000" fill-opacity="0.0" clip-path="url(#id_0)" d="M492.17 204.058C492.17 205.71486 490.82684 207.058 489.17 207.058C487.51315 207.058 486.17 205.71486 486.17 204.058C486.17 202.40114 487.51315 201.058 489.17 201.058C490.82684 201.058 492.17 202.40114 492.17 204.058Z" fill-rule="nonzero"/><path fill="#000000" fill-opacity="0.0" clip-path="url(#id_0)" d="M481.0875 214.11C481.0875 215.76686 479.74435 217.11 478.0875 217.11C476.43063 217.11 475.0875 215.76686 475.0875 214.11C475.0875 212.45314 476.43063 211.11 478.0875 211.11C479.74435 211.11 481.0875 212.45314 481.0875 214.11Z" fill-rule="nonzero"/><path fill="#000000" fill-opacity="0.0" clip-path="url(#id_0)" d="M470.005 219.136C470.005 220.79285 468.66187 222.136 467.005 222.136C465.34814 222.136 464.005 220.79285 464.005 219.136C464.005 217.47914 465.34814 216.136 467.005 216.136C468.66187 216.136 470.005 217.47914 470.005 219.136Z" fill-rule="nonzero"/><path fill="#000000" fill-opacity="0.0" clip-path="url(#id_0)" d="M458.9225 229.188C458.9225 230.84485 457.57935 232.188 455.9225 232.188C454.26566 232.188 452.9225 230.84485 452.9225 229.188C452.9225 227.53114 454.26566 226.188 455.9225 226.188C457.57935 226.188 458.9225 227.53114 458.9225 229.188Z" fill-rule="nonzero"/><path fill="#000000" fill-opacity="0.0" clip-path="url(#id_0)" d="M447.84 239.24C447.84 240.89685 446.49686 242.24 444.84 242.24C443.18314 242.24 441.84 240.89685 441.84 239.24C441.84 237.58315 443.18314 236.24 444.84 236.24C446.49686 236.24 447.84 237.58315 447.84 239.24Z" fill-rule="nonzero"/><path fill="#000000" fill-opacity="0.0" clip-path="url(#id_0)" d="M436.7575 249.292C436.7575 250.94885 435.41437 252.292 433.7575 252.292C432.10065 252.292 430.7575 250.94885 430.7575 249.292C430.7575 247.63515 432.10065 246.292 433.7575 246.292C435.41437 246.292 436.7575 247.63515 436.7575 249.292Z" fill-rule="nonzero"/><path fill="#000000" fill-opacity="0.0" clip-path="url(#id_0)" d="M425.675 259.344C425.675 261.00085 424.33185 262.344 422.675 262.344C421.01816 262.344 419.675 261.00085 419.675 259.344C419.675 257.68713 421.01816 256.344 422.675 256.344C424.33185 256.344 425.675 257.68713 425.675 259.344Z" fill-rule="nonzero"/><path fill="#000000" fill-opacity="0.0" clip-path="url(#id_0)" d="M414.5925 269.396C414.5925 271.05286 413.24936 272.396 411.5925 272.396C409.93564 272.396 408.5925 271.05286 408.5925 269.396C408.5925 267.73914 409.93564 266.396 411.5925 266.396C413.24936 266.396 414.5925 267.73914 414.5925 269.396Z" fill-rule="nonzero"/><path fill="#000000" fill-opacity="0.0" clip-path="url(#id_0)" d="M403.51 279.448C403.51 281.10486 402.16684 282.448 400.51 282.448C398.85315 282.448 397.51 281.10486 397.51 279.448C397.51 277.79114 398.85315 276.448 400.51 276.448C402.16684 276.448 403.51 277.79114 403.51 279.448Z" fill-rule="nonzero"/><path fill="#000000" fill-opacity="0.0" clip-path="url(#id_0)" d="M392.4275 289.5C392.4275 291.15686 391.08435 292.5 389.4275 292.5C387.77066 292.5 386.4275 291.15686 386.4275 289.5C386.4275 287.84314 387.77066 286.5 389.4275 286.5C391.08435 286.5 392.4275 287.84314 392.4275 289.5Z" fill-rule="nonzero"/><path fill="#000000" fill-opacity="0.0" clip-path="url(#id_0)" d="M381.345 299.552C381.345 301.20886 380.00186 302.552 378.345 302.552C376.68814 302.552 375.345 301.20886 375.345 299.552C375.345 297.89514 376.68814 296.552 378.345 296.552C380.00186 296.552 381.345 297.89514 381.345 299.552Z" fill-rule="nonzero"/><path fill="#000000" fill-opacity="0.0" clip-path="url(#id_0)" d="M370.2625 309.604C370.2625 311.26086 368.91934 312.604 367.2625 312.604C365.60565 312.604 364.2625 311.26086 364.2625 309.604C364.2625 307.94714 365.60565 306.604 367.2625 306.604C368.91934 306.604 370.2625 307.94714 370.2625 309.604Z" fill-rule="nonzero"/><path fill="#000000" fill-opacity="0.0" clip-path="url(#id_0)" d="M359.18 319.656C359.18 321.31287 357.83685 322.656 356.18 322.656C354.52313 322.656 353.18 321.31287 353.18 319.656C353.18 317.99915 354.52313 316.656 356.18 316.656C357.83685 316.656 359.18 317.99915 359.18 319.656Z" fill-rule="nonzero"/><path fill="#000000" fill-opacity="0.0" clip-path="url(#id_0)" d="M348.0975 329.708C348.0975 331.36487 346.75436 332.708 345.0975 332.708C343.44064 332.708 342.0975 331.36487 342.0975 329.708C342.0975 328.05115 343.44064 326.708 345.0975 326.708C346.75436 326.708 348.0975 328.05115 348.0975 329.708Z" fill-rule="nonzero"/><path fill="#000000" fill-opacity="0.0" clip-path="url(#id_0)" d="M337.015 339.76C337.015 341.41684 335.67184 342.76 334.015 342.76C332.35815 342.76 331.015 341.41684 331.015 339.76C331.015 338.10315 332.35815 336.76 334.015 336.76C335.67184 336.76 337.015 338.10315 337.015 339.76Z" fill-rule="nonzero"/><path fill="#000000" fill-opacity="0.0" clip-path="url(#id_0)" d="M325.9325 354.838C325.9325 356.49484 324.58936 357.838 322.9325 357.838C321.27563 357.838 319.9325 356.49484 319.9325 354.838C319.9325 353.18115 321.27563 351.838 322.9325 351.838C324.58936 351.838 325.9325 353.18115 325.9325 354.838Z" fill-rule="nonzero"/><path fill="#000000" fill-opacity="0.0" clip-path="url(#id_0)" d="M314.85 364.89C314.85 366.54684 313.50687 367.89 311.85 367.89C310.19315 367.89 308.85 366.54684 308.85 364.89C308.85 363.23315 310.19315 361.89 311.85 361.89C313.50687 361.89 314.85 363.23315 314.85 364.89Z" fill-rule="nonzero"/><path fill="#000000" fill-opacity="0.0" clip-path="url(#id_0)" d="M303.7675 374.942C303.7675 376.59885 302.42435 377.942 300.7675 377.942C299.11066 377.942 297.7675 376.59885 297.7675 374.942C297.7675 373.28516 299.11066 371.942 300.7675 371.942C302.42435 371.942 303.7675 373.28516 303.7675 374.942Z" fill-rule="nonzero"/><path fill="#000000" fill-opacity="0.0" clip-path="url(#id_0)" d="M292.685 390.02C292.685 391.67685 291.34186 393.02 289.685 393.02C288.02814 393.02 286.685 391.67685 286.685 390.02C286.685 388.36316 288.02814 387.02 289.685 387.02C291.34186 387.02 292.685 388.36316 292.685 390.02Z" fill-rule="nonzero"/><path fill="#000000" fill-opacity="0.0" clip-path="url(#id_0)" d="M281.6025 400.072C281.6025 401.72885 280.25937 403.072 278.6025 403.072C276.94565 403.072 275.6025 401.72885 275.6025 400.072C275.6025 398.41513 276.94565 397.072 278.6025 397.072C280.25937 397.072 281.6025 398.41513 281.6025 400.072Z" fill-rule="nonzero"/><path fill="#000000" fill-opacity="0.0" clip-path="url(#id_0)" d="M270.52 410.124C270.52 411.78085 269.17685 413.124 267.52 413.124C265.86316 413.124 264.52 411.78085 264.52 410.124C264.52 408.46713 265.86316 407.124 267.52 407.124C269.17685 407.124 270.52 408.46713 270.52 410.124Z" fill-rule="nonzero"/><path fill="#000000" fill-opacity="0.0" clip-path="url(#id_0)" d="M259.4375 425.202C259.4375 426.85886 258.09436 428.202 256.4375 428.202C254.78064 428.202 253.4375 426.85886 253.4375 425.202C253.4375 423.54514 254.78064 422.202 256.4375 422.202C258.09436 422.202 259.4375 423.54514 259.4375 425.202Z" fill-rule="nonzero"/><path fill="#000000" fill-opacity="0.0" clip-path="url(#id_0)" d="M248.355 440.28C248.355 441.93686 247.01186 443.28 245.355 443.28C243.69815 443.28 242.355 441.93686 242.355 440.28C242.355 438.62314 243.69815 437.28 245.355 437.28C247.01186 437.28 248.355 438.62314 248.355 440.28Z" fill-rule="nonzero"/><path fill="#000000" fill-opacity="0.0" clip-path="url(#id_0)" d="M237.2725 450.332C237.2725 451.98886 235.92935 453.332 234.2725 453.332C232.61565 453.332 231.2725 451.98886 231.2725 450.332C231.2725 448.67514 232.61565 447.332 234.2725 447.332C235.92935 447.332 237.2725 448.67514 237.2725 450.332Z" fill-rule="nonzero"/><path fill="#000000" fill-opacity="0.0" clip-path="url(#id_0)" d="M226.19 465.41C226.19 467.06686 224.84685 468.41 223.19 468.41C221.53314 468.41 220.19 467.06686 220.19 465.41C220.19 463.75314 221.53314 462.41 223.19 462.41C224.84685 462.41 226.19 463.75314 226.19 465.41Z" fill-rule="nonzero"/><path fill="#000000" fill-opacity="0.0" clip-path="url(#id_0)" d="M215.1075 475.462C215.1075 477.11887 213.76436 478.462 212.1075 478.462C210.45065 478.462 209.1075 477.11887 209.1075 475.462C209.1075 473.80515 210.45065 472.462 212.1075 472.462C213.76436 472.462 215.1075 473.80515 215.1075 475.462Z" fill-rule="nonzero"/><path fill="#000000" fill-opacity="0.0" clip-path="url(#id_0)" d="M204.025 490.54C204.025 492.19687 202.68185 493.54 201.025 493.54C199.36815 493.54 198.025 492.19687 198.025 490.54C198.025 488.88315 199.36815 487.54 201.025 487.54C202.68185 487.54 204.025 488.88315 204.025 490.54Z" fill-rule="nonzero"/><path fill="#000000" fill-opacity="0.0" clip-path="url(#id_0)" d="M192.9425 505.618C192.9425 507.27484 191.59935 508.618 189.9425 508.618C188.28564 508.618 186.9425 507.27484 186.9425 505.618C186.9425 503.96115 188.28564 502.618 189.9425 502.618C191.59935 502.618 192.9425 503.96115 192.9425 505.618Z" fill-rule="nonzero"/><path fill="#000000" fill-opacity="0.0" clip-path="url(#id_0)" d="M181.86 520.696C181.86 522.35284 180.51686 523.696 178.86 523.696C177.20314 523.696 175.86 522.35284 175.86 520.696C175.86 519.0391 177.20314 517.696 178.86 517.696C180.51686 517.696 181.86 519.0391 181.86 520.696Z" fill-rule="nonzero"/><path fill="#000000" fill-opacity="0.0" clip-path="url(#id_0)" d="M170.7775 535.774C170.7775 537.43085 169.43436 538.774 167.7775 538.774C166.12065 538.774 164.7775 537.43085 164.7775 535.774C164.7775 534.1171 166.12065 532.774 167.7775 532.774C169.43436 532.774 170.7775 534.1171 170.7775 535.774Z" fill-rule="nonzero"/><path fill="#000000" fill-opacity="0.0" clip-path="url(#id_0)" d="M159.695 540.8C159.695 542.45685 158.35185 543.8 156.695 543.8C155.03815 543.8 153.695 542.45685 153.695 540.8C153.695 539.1431 155.03815 537.8 156.695 537.8C158.35185 537.8 159.695 539.1431 159.695 540.8Z" fill-rule="nonzero"/><path fill="#000000" fill-opacity="0.0" clip-path="url(#id_0)" d="M148.6125 540.8C148.6125 542.45685 147.26935 543.8 145.6125 543.8C143.95564 543.8 142.6125 542.45685 142.6125 540.8C142.6125 539.1431 143.95564 537.8 145.6125 537.8C147.26935 537.8 148.6125 539.1431 148.6125 540.8Z" fill-rule="nonzero"/><path fill="#000000" fill-opacity="0.0" clip-path="url(#id_0)" d="M137.53 540.8C137.53 542.45685 136.18686 543.8 134.53 543.8C132.87314 543.8 131.53 542.45685 131.53 540.8C131.53 539.1431 132.87314 537.8 134.53 537.8C136.18686 537.8 137.53 539.1431 137.53 540.8Z" fill-rule="nonzero"/><path fill="#000000" fill-opacity="0.0" clip-path="url(#id_0)" d="M126.4475 540.8C126.4475 542.45685 125.104355 543.8 123.4475 543.8C121.79065 543.8 120.4475 542.45685 120.4475 540.8C120.4475 539.1431 121.79065 537.8 123.4475 537.8C125.104355 537.8 126.4475 539.1431 126.4475 540.8Z" fill-rule="nonzero"/><path fill="#000000" fill-opacity="0.0" clip-path="url(#id_0)" d="M115.365 540.8C115.365 542.45685 114.02185 543.8 112.365 543.8C110.708145 543.8 109.365 542.45685 109.365 540.8C109.365 539.1431 110.708145 537.8 112.365 537.8C114.02185 537.8 115.365 539.1431 115.365 540.8Z" fill-rule="nonzero"/><path fill="#000000" fill-opacity="0.0" clip-path="url(#id_0)" d="M104.2825 540.8C104.2825 542.45685 102.939354 543.8 101.2825 543.8C99.62565 543.8 98.2825 542.45685 98.2825 540.8C98.2825 539.1431 99.62565 537.8 101.2825 537.8C102.939354 537.8 104.2825 539.1431 104.2825 540.8Z" fill-rule="nonzero"/><path fill="#000000" fill-opacity="0.0" clip-path="url(#id_0)" d="M93.2 540.8C93.2 542.45685 91.85686 543.8 90.2 543.8C88.543144 543.8 87.2 542.45685 87.2 540.8C87.2 539.1431 88.543144 537.8 90.2 537.8C91.85686 537.8 93.2 539.1431 93.2 540.8Z" fill-rule="nonzero"/><path fill="#000000" d="M525.3281 589.8L525.3281 589.01874Q524.7344 589.9406 523.59375 589.9406Q522.84375 589.9406 522.21875 589.53436Q521.59375 589.1125 521.25 588.3781Q520.90625 587.64374 520.90625 586.6906Q520.90625 585.76874 521.21875 585.0031Q521.53125 584.2375 522.15625 583.84686Q522.78125 583.4406 523.5469 583.4406Q524.1094 583.4406 524.5469 583.675Q524.9844 583.90936 525.2656 584.28436L525.2656 581.20624L526.3125 581.20624L526.3125 589.8L525.3281 589.8ZM522.0 586.6906Q522.0 587.89374 522.5 588.4875Q523.0 589.0656 523.6875 589.0656Q524.375 589.0656 524.8594 588.5031Q525.34375 587.9406 525.34375 586.78436Q525.34375 585.5031 524.84375 584.90936Q524.3594 584.3156 523.6406 584.3156Q522.9375 584.3156 522.46875 584.89374Q522.0 585.45624 522.0 586.6906ZM528.375 589.8L528.375 581.20624L531.6094 581.20624Q532.59375 581.20624 533.1875 581.47186Q533.78125 581.7375 534.1094 582.28436Q534.4531 582.8156 534.4531 583.40936Q534.4531 583.95624 534.15625 584.4406Q533.8594 584.925 533.25 585.22186Q534.03125 585.45624 534.4375 586.01874Q534.8594 586.5656 534.8594 587.3156Q534.8594 587.90936 534.6094 588.4406Q534.3594 588.95624 533.9844 589.2375Q533.6094 589.51874 533.03125 589.65936Q532.46875 589.8 531.65625 589.8L528.375 589.8ZM529.5156 584.8156L531.375 584.8156Q532.125 584.8156 532.4531 584.72186Q532.8906 584.59686 533.1094 584.3Q533.3281 583.9875 533.3281 583.53436Q533.3281 583.1125 533.125 582.78436Q532.9219 582.45624 532.53125 582.34686Q532.15625 582.22186 531.2344 582.22186L529.5156 582.22186L529.5156 584.8156ZM529.5156 588.78436L531.65625 588.78436Q532.2031 588.78436 532.4219 588.7375Q532.8281 588.675 533.0781 588.51874Q533.34375 588.34686 533.5156 588.03436Q533.6875 587.72186 533.6875 587.3156Q533.6875 586.83124 533.4375 586.47186Q533.2031 586.1125 532.7656 585.97186Q532.3281 585.83124 531.5 585.83124L529.5156 585.83124L529.5156 588.78436ZM536.2969 589.8L536.2969 583.58124L537.2344 583.58124L537.2344 584.45624Q537.53125 583.9875 538.0156 583.72186Q538.5 583.4406 539.125 583.4406Q539.8125 583.4406 540.25 583.72186Q540.7031 584.0031 540.875 584.51874Q541.625 583.4406 542.7969 583.4406Q543.7344 583.4406 544.21875 583.95624Q544.71875 584.45624 544.71875 585.53436L544.71875 589.8L543.6719 589.8L543.6719 585.8781Q543.6719 585.2531 543.5625 584.97186Q543.46875 584.6906 543.2031 584.51874Q542.9375 584.34686 542.5625 584.34686Q541.90625 584.34686 541.46875 584.78436Q541.0469 585.22186 541.0469 586.1906L541.0469 589.8L539.9844 589.8L539.9844 585.7531Q539.9844 585.05 539.71875 584.70624Q539.46875 584.34686 538.8906 584.34686Q538.4375 584.34686 538.0625 584.58124Q537.6875 584.8156 537.5156 585.26874Q537.34375 585.72186 537.34375 586.5656L537.34375 589.8L536.2969 589.8Z" fill-rule="nonzero"/><path fill="#000000" d="M39.434364 332.95312L39.340614 331.89062Q39.996864 331.8125 40.403114 331.53125Q40.809364 331.25 41.07499 330.67188Q41.32499 330.07812 41.32499 329.34375Q41.32499 328.70312 41.13749 328.20312Q40.934364 327.70312 40.60624 327.46875Q40.26249 327.21875 39.871864 327.21875Q39.465614 327.21875 39.16874 327.45312Q38.85624 327.6875 38.653114 328.21875Q38.51249 328.57812 38.23124 329.76562Q37.94999 330.9375 37.69999 331.40625Q37.371864 332.03125 36.903114 332.32812Q36.41874 332.625 35.82499 332.625Q35.184364 332.625 34.621864 332.26562Q34.04374 331.89062 33.76249 331.1875Q33.465614 330.46875 33.465614 329.60938Q33.465614 328.65625 33.778114 327.92188Q34.07499 327.1875 34.684364 326.79688Q35.278114 326.40625 36.028114 326.375L36.10624 327.46875Q35.29374 327.5625 34.88749 328.07812Q34.465614 328.57812 34.465614 329.5625Q34.465614 330.59375 34.840614 331.0625Q35.215614 331.53125 35.746864 331.53125Q36.215614 331.53125 36.51249 331.20312Q36.809364 330.875 37.121864 329.5Q37.434364 328.10938 37.66874 327.59375Q38.028114 326.84375 38.559364 326.48438Q39.07499 326.125 39.778114 326.125Q40.465614 326.125 41.07499 326.51562Q41.66874 326.90625 42.01249 327.64062Q42.340614 328.375 42.340614 329.29688Q42.340614 330.46875 42.01249 331.26562Q41.66874 332.04688 40.98124 332.5Q40.29374 332.9375 39.434364 332.95312ZM34.82499 324.70312L33.60624 324.70312L33.60624 323.64062L34.82499 323.64062L34.82499 324.70312ZM42.19999 324.70312L35.98124 324.70312L35.98124 323.64062L42.19999 323.64062L42.19999 324.70312ZM42.715614 321.90625L42.871864 320.875Q43.340614 320.8125 43.559364 320.51562Q43.85624 320.125 43.85624 319.45312Q43.85624 318.71875 43.559364 318.32812Q43.26249 317.92188 42.746864 317.78125Q42.41874 317.6875 41.38749 317.70312Q42.19999 318.39062 42.19999 319.42188Q42.19999 320.70312 41.278114 321.40625Q40.340614 322.10938 39.059364 322.10938Q38.16874 322.10938 37.41874 321.79688Q36.653114 321.46875 36.246864 320.85938Q35.840614 320.25 35.840614 319.42188Q35.840614 318.3125 36.73124 317.59375L35.98124 317.59375L35.98124 316.625L41.35624 316.625Q42.809364 316.625 43.41874 316.92188Q44.028114 317.21875 44.371864 317.85938Q44.73124 318.5 44.73124 319.4375Q44.73124 320.54688 44.23124 321.23438Q43.73124 321.92188 42.715614 321.90625ZM38.98124 321.03125Q40.19999 321.03125 40.76249 320.54688Q41.32499 320.0625 41.32499 319.32812Q41.32499 318.59375 40.76249 318.10938Q40.19999 317.60938 39.01249 317.60938Q37.871864 317.60938 37.29374 318.125Q36.715614 318.625 36.715614 319.34375Q36.715614 320.04688 37.29374 320.54688Q37.85624 321.03125 38.98124 321.03125ZM42.19999 314.70312L35.98124 314.70312L35.98124 313.76562L36.85624 313.76562Q35.840614 313.07812 35.840614 311.78125Q35.840614 311.21875 36.04374 310.75Q36.246864 310.26562 36.57499 310.03125Q36.903114 309.79688 37.340614 309.70312Q37.63749 309.65625 38.371864 309.65625L42.19999 309.65625L42.19999 310.70312L38.41874 310.70312Q37.76249 310.70312 37.44999 310.82812Q37.13749 310.95312 36.94999 311.26562Q36.746864 311.57812 36.746864 312.0Q36.746864 312.67188 37.184364 313.17188Q37.60624 313.65625 38.79374 313.65625L42.19999 313.65625L42.19999 314.70312ZM41.434364 303.64062Q41.934364 304.23438 42.13749 304.78125Q42.340614 305.3125 42.340614 305.9375Q42.340614 306.96875 41.840614 307.51562Q41.340614 308.0625 40.559364 308.0625Q40.10624 308.0625 39.73124 307.85938Q39.340614 307.65625 39.121864 307.3125Q38.88749 306.96875 38.778114 306.54688Q38.684364 306.25 38.60624 305.60938Q38.465614 304.34375 38.246864 303.73438Q38.028114 303.73438 37.98124 303.73438Q37.32499 303.73438 37.059364 304.03125Q36.715614 304.4375 36.715614 305.23438Q36.715614 305.96875 36.98124 306.32812Q37.23124 306.6875 37.88749 306.85938L37.746864 307.89062Q37.090614 307.75 36.684364 307.42188Q36.278114 307.09375 36.059364 306.48438Q35.840614 305.875 35.840614 305.07812Q35.840614 304.28125 36.028114 303.78125Q36.215614 303.28125 36.496864 303.04688Q36.778114 302.8125 37.215614 302.71875Q37.48124 302.67188 38.184364 302.67188L39.590614 302.67188Q41.059364 302.67188 41.44999 302.60938Q41.840614 302.53125 42.19999 302.32812L42.19999 303.4375Q41.871864 303.59375 41.434364 303.64062ZM39.07499 303.73438Q39.309364 304.3125 39.48124 305.45312Q39.57499 306.10938 39.69999 306.375Q39.809364 306.64062 40.028114 306.79688Q40.246864 306.9375 40.528114 306.9375Q40.94999 306.9375 41.23124 306.625Q41.51249 306.29688 41.51249 305.6875Q41.51249 305.07812 41.246864 304.60938Q40.98124 304.125 40.51249 303.90625Q40.153114 303.73438 39.465614 303.73438L39.07499 303.73438ZM42.19999 300.73438L33.60624 300.73438L33.60624 299.67188L42.19999 299.67188L42.19999 300.73438ZM41.278114 288.0625Q41.82499 287.26562 42.07499 286.60938L42.871864 286.9375Q42.528114 287.85938 41.809364 288.78125Q42.340614 289.73438 42.340614 290.89062Q42.340614 292.0625 41.778114 293.01562Q41.215614 293.95312 40.19999 294.46875Q39.184364 294.98438 37.903114 294.98438Q36.63749 294.98438 35.590614 294.46875Q34.54374 293.95312 33.996864 293.0Q33.44999 292.04688 33.44999 290.875Q33.44999 289.6875 34.028114 288.73438Q34.590614 287.76562 35.60624 287.26562Q36.621864 286.76562 37.903114 286.76562Q38.965614 286.76562 39.809364 287.09375Q40.653114 287.40625 41.278114 288.0625ZM39.82499 290.5625Q40.10624 289.57812 40.653114 288.9375Q39.73124 287.9375 37.903114 287.9375Q36.85624 287.9375 36.07499 288.29688Q35.29374 288.65625 34.871864 289.34375Q34.434364 290.01562 34.434364 290.85938Q34.434364 292.14062 35.309364 292.98438Q36.16874 293.8125 37.903114 293.8125Q39.57499 293.8125 40.48124 292.98438Q41.371864 292.15625 41.371864 290.85938Q41.371864 290.25 41.13749 289.71875Q40.79374 290.25 40.653114 290.84375L39.82499 290.5625ZM42.19999 281.625L41.278114 281.625Q42.340614 282.35938 42.340614 283.60938Q42.340614 284.15625 42.13749 284.64062Q41.91874 285.10938 41.60624 285.34375Q41.278114 285.57812 40.809364 285.67188Q40.51249 285.73438 39.82499 285.73438L35.98124 285.73438L35.98124 284.67188L39.434364 284.67188Q40.246864 284.67188 40.54374 284.60938Q40.94999 284.51562 41.19999 284.20312Q41.434364 283.875 41.434364 283.39062Q41.434364 282.92188 41.19999 282.51562Q40.94999 282.09375 40.528114 281.92188Q40.10624 281.73438 39.309364 281.73438L35.98124 281.73438L35.98124 280.6875L42.19999 280.6875L42.19999 281.625ZM41.434364 274.64062Q41.934364 275.23438 42.13749 275.78125Q42.340614 276.3125 42.340614 276.9375Q42.340614 277.96875 41.840614 278.51562Q41.340614 279.0625 40.559364 279.0625Q40.10624 279.0625 39.73124 278.85938Q39.340614 278.65625 39.121864 278.3125Q38.88749 277.96875 38.778114 277.54688Q38.684364 277.25 38.60624 276.60938Q38.465614 275.34375 38.246864 274.73438Q38.028114 274.73438 37.98124 274.73438Q37.32499 274.73438 37.059364 275.03125Q36.715614 275.4375 36.715614 276.23438Q36.715614 276.96875 36.98124 277.32812Q37.23124 277.6875 37.88749 277.85938L37.746864 278.89062Q37.090614 278.75 36.684364 278.42188Q36.278114 278.09375 36.059364 277.48438Q35.840614 276.875 35.840614 276.07812Q35.840614 275.28125 36.028114 274.78125Q36.215614 274.28125 36.496864 274.04688Q36.778114 273.8125 37.215614 273.71875Q37.48124 273.67188 38.184364 273.67188L39.590614 273.67188Q41.059364 273.67188 41.44999 273.60938Q41.840614 273.53125 42.19999 273.32812L42.19999 274.4375Q41.871864 274.59375 41.434364 274.64062ZM39.07499 274.73438Q39.309364 275.3125 39.48124 276.45312Q39.57499 277.10938 39.69999 277.375Q39.809364 277.64062 40.028114 277.79688Q40.246864 277.9375 40.528114 277.9375Q40.94999 277.9375 41.23124 277.625Q41.51249 277.29688 41.51249 276.6875Q41.51249 276.07812 41.246864 275.60938Q40.98124 275.125 40.51249 274.90625Q40.153114 274.73438 39.465614 274.73438L39.07499 274.73438ZM42.19999 271.73438L33.60624 271.73438L33.60624 270.67188L42.19999 270.67188L42.19999 271.73438ZM34.82499 268.70312L33.60624 268.70312L33.60624 267.64062L34.82499 267.64062L34.82499 268.70312ZM42.19999 268.70312L35.98124 268.70312L35.98124 267.64062L42.19999 267.64062L42.19999 268.70312ZM41.26249 263.40625L42.184364 263.25Q42.278114 263.70312 42.278114 264.04688Q42.278114 264.625 42.10624 264.9375Q41.91874 265.25 41.621864 265.39062Q41.32499 265.51562 40.371864 265.51562L36.79374 265.51562L36.79374 266.28125L35.98124 266.28125L35.98124 265.51562L34.434364 265.51562L33.809364 264.46875L35.98124 264.46875L35.98124 263.40625L36.79374 263.40625L36.79374 264.46875L40.434364 264.46875Q40.88749 264.46875 41.01249 264.42188Q41.13749 264.35938 41.215614 264.23438Q41.29374 264.10938 41.29374 263.875Q41.29374 263.6875 41.26249 263.40625ZM44.590614 262.75L43.60624 262.875Q43.69999 262.53125 43.69999 262.26562Q43.69999 261.92188 43.57499 261.71875Q43.465614 261.5 43.26249 261.35938Q43.090614 261.26562 42.465614 261.03125Q42.38749 261.01562 42.215614 260.9375L35.98124 263.3125L35.98124 262.17188L39.57499 260.875Q40.26249 260.625 41.028114 260.42188Q40.29374 260.23438 39.60624 259.98438L35.98124 258.65625L35.98124 257.60938L42.309364 259.96875Q43.32499 260.35938 43.715614 260.5625Q44.246864 260.84375 44.48124 261.21875Q44.73124 261.57812 44.73124 262.07812Q44.73124 262.375 44.590614 262.75Z" fill-rule="nonzero"/><path fill="#000000" d="M77.7 540.5656Q77.7 539.03436 78.0125 538.1125Q78.325 537.175 78.93437 536.675Q79.55937 536.175 80.49687 536.175Q81.18437 536.175 81.7 536.45624Q82.23125 536.7375 82.575 537.26874Q82.91875 537.78436 83.10625 538.53436Q83.29375 539.28436 83.29375 540.5656Q83.29375 542.08124 82.98125 543.0031Q82.68437 543.925 82.05937 544.4406Q81.45 544.9406 80.49687 544.9406Q79.2625 544.9406 78.54375 544.05Q77.7 542.9875 77.7 540.5656ZM78.77812 540.5656Q78.77812 542.675 79.27812 543.3781Q79.77812 544.08124 80.49687 544.08124Q81.23125 544.08124 81.71562 543.3781Q82.21562 542.675 82.21562 540.5656Q82.21562 538.4406 81.71562 537.7531Q81.23125 537.05 80.48125 537.05Q79.7625 537.05 79.325 537.65936Q78.77812 538.4406 78.77812 540.5656Z" fill-rule="nonzero"/><path fill="#000000" d="M76.24687 418.13437L76.24687 419.15L70.55937 419.15Q70.55937 418.775 70.68437 418.41562Q70.90312 417.8375 71.37187 417.275Q71.85625 416.7125 72.7625 415.97812Q74.16875 414.82187 74.65312 414.15Q75.15312 413.47812 75.15312 412.88437Q75.15312 412.25937 74.7 411.8375Q74.24687 411.4 73.52812 411.4Q72.7625 411.4 72.30937 411.85312Q71.85625 412.30624 71.84062 413.11874L70.7625 413.00937Q70.87187 411.79062 71.59062 411.16562Q72.325 410.525 73.55937 410.525Q74.79375 410.525 75.5125 411.2125Q76.23125 411.9 76.23125 412.91562Q76.23125 413.43124 76.0125 413.93124Q75.80937 414.41562 75.30937 414.97812Q74.825 415.525 73.7 416.47812Q72.74687 417.275 72.46562 417.57187Q72.2 417.85312 72.02812 418.13437L76.24687 418.13437ZM77.7 416.9L78.80937 416.80624Q78.93437 417.61874 79.37187 418.025Q79.825 418.43124 80.46562 418.43124Q81.21562 418.43124 81.74687 417.85312Q82.27812 417.275 82.27812 416.3375Q82.27812 415.43124 81.7625 414.91562Q81.2625 414.38437 80.43437 414.38437Q79.93437 414.38437 79.5125 414.61874Q79.10625 414.85312 78.87187 415.2125L77.8875 415.0875L78.71562 410.68124L82.99687 410.68124L82.99687 411.68124L79.55937 411.68124L79.10625 413.99374Q79.87187 413.44687 80.71562 413.44687Q81.84062 413.44687 82.60625 414.22812Q83.3875 415.00937 83.3875 416.24374Q83.3875 417.4 82.71562 418.25937Q81.8875 419.29062 80.46562 419.29062Q79.29375 419.29062 78.54375 418.63437Q77.80937 417.97812 77.7 416.9Z" fill-rule="nonzero"/><path fill="#000000" d="M70.7 291.25L71.80937 291.15625Q71.93437 291.96875 72.37187 292.375Q72.825 292.78125 73.46562 292.78125Q74.21562 292.78125 74.74687 292.20312Q75.27812 291.625 75.27812 290.6875Q75.27812 289.78125 74.7625 289.26562Q74.2625 288.73438 73.43437 288.73438Q72.93437 288.73438 72.5125 288.96875Q72.10625 289.20312 71.87187 289.5625L70.8875 289.4375L71.71562 285.03125L75.99687 285.03125L75.99687 286.03125L72.55937 286.03125L72.10625 288.34375Q72.87187 287.79688 73.71562 287.79688Q74.84062 287.79688 75.60625 288.57812Q76.3875 289.35938 76.3875 290.59375Q76.3875 291.75 75.71562 292.60938Q74.8875 293.64062 73.46562 293.64062Q72.29375 293.64062 71.54375 292.98438Q70.80937 292.32812 70.7 291.25ZM77.7 289.26562Q77.7 287.73438 78.0125 286.8125Q78.325 285.875 78.93437 285.375Q79.55937 284.875 80.49687 284.875Q81.18437 284.875 81.7 285.15625Q82.23125 285.4375 82.575 285.96875Q82.91875 286.48438 83.10625 287.23438Q83.29375 287.98438 83.29375 289.26562Q83.29375 290.78125 82.98125 291.70312Q82.68437 292.625 82.05937 293.14062Q81.45 293.64062 80.49687 293.64062Q79.2625 293.64062 78.54375 292.75Q77.7 291.6875 77.7 289.26562ZM78.77812 289.26562Q78.77812 291.375 79.27812 292.07812Q79.77812 292.78125 80.49687 292.78125Q81.23125 292.78125 81.71562 292.07812Q82.21562 291.375 82.21562 289.26562Q82.21562 287.14062 81.71562 286.45312Q81.23125 285.75 80.48125 285.75Q79.7625 285.75 79.325 286.35938Q78.77812 287.14062 78.77812 289.26562Z" fill-rule="nonzero"/><path fill="#000000" d="M70.7625 160.38126L70.7625 159.36563L76.325 159.36563L76.325 160.19376Q75.5125 161.06876 74.7 162.52188Q73.90312 163.95938 73.46562 165.49063Q73.1375 166.56876 73.05937 167.85L71.96562 167.85Q71.98125 166.83438 72.35625 165.39688Q72.74687 163.95938 73.45 162.63126Q74.16875 161.30313 74.98125 160.38126L70.7625 160.38126ZM77.7 165.6L78.80937 165.50626Q78.93437 166.31876 79.37187 166.725Q79.825 167.13126 80.46562 167.13126Q81.21562 167.13126 81.74687 166.55313Q82.27812 165.975 82.27812 165.0375Q82.27812 164.13126 81.7625 163.61563Q81.2625 163.08438 80.43437 163.08438Q79.93437 163.08438 79.5125 163.31876Q79.10625 163.55313 78.87187 163.9125L77.8875 163.7875L78.71562 159.38126L82.99687 159.38126L82.99687 160.38126L79.55937 160.38126L79.10625 162.69376Q79.87187 162.14688 80.71562 162.14688Q81.84062 162.14688 82.60625 162.92813Q83.3875 163.70938 83.3875 164.94376Q83.3875 166.1 82.71562 166.95938Q81.8875 167.99063 80.46562 167.99063Q79.29375 167.99063 78.54375 167.33438Q77.80937 166.67813 77.7 165.6Z" fill-rule="nonzero"/><path fill="#000000" d="M67.66875 42.2L66.62187 42.2L66.62187 35.48125Q66.23125 35.840626 65.60625 36.215626Q64.99687 36.575 64.5125 36.746876L64.5125 35.73125Q65.3875 35.309376 66.04375 34.73125Q66.71562 34.1375 66.99687 33.575L67.66875 33.575L67.66875 42.2ZM70.7 37.965626Q70.7 36.434376 71.0125 35.5125Q71.325 34.575 71.93437 34.075Q72.55937 33.575 73.49687 33.575Q74.18437 33.575 74.7 33.85625Q75.23125 34.1375 75.575 34.66875Q75.91875 35.184376 76.10625 35.934376Q76.29375 36.684376 76.29375 37.965626Q76.29375 39.48125 75.98125 40.403126Q75.68437 41.325 75.05937 41.840626Q74.45 42.340626 73.49687 42.340626Q72.2625 42.340626 71.54375 41.45Q70.7 40.3875 70.7 37.965626ZM71.77812 37.965626Q71.77812 40.075 72.27812 40.778126Q72.77812 41.48125 73.49687 41.48125Q74.23125 41.48125 74.71562 40.778126Q75.21562 40.075 75.21562 37.965626Q75.21562 35.840626 74.71562 35.153126Q74.23125 34.45 73.48125 34.45Q72.7625 34.45 72.325 35.059376Q71.77812 35.840626 71.77812 37.965626ZM77.7 37.965626Q77.7 36.434376 78.0125 35.5125Q78.325 34.575 78.93437 34.075Q79.55937 33.575 80.49687 33.575Q81.18437 33.575 81.7 33.85625Q82.23125 34.1375 82.575 34.66875Q82.91875 35.184376 83.10625 35.934376Q83.29375 36.684376 83.29375 37.965626Q83.29375 39.48125 82.98125 40.403126Q82.68437 41.325 82.05937 41.840626Q81.45 42.340626 80.49687 42.340626Q79.2625 42.340626 78.54375 41.45Q77.7 40.3875 77.7 37.965626ZM78.77812 37.965626Q78.77812 40.075 79.27812 40.778126Q79.77812 41.48125 80.49687 41.48125Q81.23125 41.48125 81.71562 40.778126Q82.21562 40.075 82.21562 37.965626Q82.21562 35.840626 81.71562 35.153126Q81.23125 34.45 80.48125 34.45Q79.7625 34.45 79.325 35.059376Q78.77812 35.840626 78.77812 37.965626Z" fill-rule="nonzero"/><path fill="#000000" d="M78.075 555.22186L78.075 554.15936L81.325 554.15936L81.325 555.22186L78.075 555.22186ZM86.16875 557.8L85.12187 557.8L85.12187 551.08124Q84.73125 551.4406 84.10625 551.8156Q83.49687 552.175 83.0125 552.34686L83.0125 551.33124Q83.8875 550.90936 84.54375 550.33124Q85.21562 549.7375 85.49687 549.175L86.16875 549.175L86.16875 557.8ZM89.2 553.5656Q89.2 552.03436 89.5125 551.1125Q89.825 550.175 90.43437 549.675Q91.05937 549.175 91.99687 549.175Q92.68437 549.175 93.2 549.45624Q93.73125 549.7375 94.075 550.26874Q94.41875 550.78436 94.60625 551.53436Q94.79375 552.28436 94.79375 553.5656Q94.79375 555.08124 94.48125 556.0031Q94.18437 556.925 93.55937 557.4406Q92.95 557.9406 91.99687 557.9406Q90.7625 557.9406 90.04375 557.05Q89.2 555.9875 89.2 553.5656ZM90.27812 553.5656Q90.27812 555.675 90.77812 556.3781Q91.27812 557.08124 91.99687 557.08124Q92.73125 557.08124 93.21562 556.3781Q93.71562 555.675 93.71562 553.5656Q93.71562 551.4406 93.21562 550.7531Q92.73125 550.05 91.98125 550.05Q91.2625 550.05 90.825 550.65936Q90.27812 551.4406 90.27812 553.5656ZM96.2 553.5656Q96.2 552.03436 96.5125 551.1125Q96.825 550.175 97.43437 549.675Q98.05937 549.175 98.99687 549.175Q99.68437 549.175 100.2 549.45624Q100.73125 549.7375 101.075 550.26874Q101.41875 550.78436 101.60625 551.53436Q101.79375 552.28436 101.79375 553.5656Q101.79375 555.08124 101.48125 556.0031Q101.18437 556.925 100.55937 557.4406Q99.95 557.9406 98.99687 557.9406Q97.7625 557.9406 97.04375 557.05Q96.2 555.9875 96.2 553.5656ZM97.27812 553.5656Q97.27812 555.675 97.77812 556.3781Q98.27812 557.08124 98.99687 557.08124Q99.73125 557.08124 100.21562 556.3781Q100.71562 555.675 100.71562 553.5656Q100.71562 551.4406 100.21562 550.7531Q99.73125 550.05 98.98125 550.05Q98.2625 550.05 97.825 550.65936Q97.27812 551.4406 97.27812 553.5656Z" fill-rule="nonzero"/><path fill="#000000" d="M303.225 555.22186L303.225 554.15936L306.475 554.15936L306.475 555.22186L303.225 555.22186ZM308.975 553.14374Q308.31876 552.89374 307.99063 552.45624Q307.67813 552.0031 307.67813 551.39374Q307.67813 550.45624 308.35 549.8156Q309.0375 549.175 310.14688 549.175Q311.27188 549.175 311.95938 549.83124Q312.64688 550.4875 312.64688 551.425Q312.64688 552.01874 312.33438 552.45624Q312.02188 552.89374 311.38126 553.14374Q312.17813 553.39374 312.58438 553.97186Q312.99063 554.55 312.99063 555.34686Q312.99063 556.4406 312.20938 557.1906Q311.44376 557.9406 310.1625 557.9406Q308.89688 557.9406 308.11563 557.1906Q307.33438 556.4406 307.33438 555.3156Q307.33438 554.47186 307.75626 553.90936Q308.19376 553.34686 308.975 553.14374ZM308.75626 551.34686Q308.75626 551.95624 309.14688 552.34686Q309.55313 552.7375 310.17813 552.7375Q310.7875 552.7375 311.17813 552.3625Q311.56876 551.97186 311.56876 551.40936Q311.56876 550.83124 311.1625 550.4406Q310.75626 550.03436 310.1625 550.03436Q309.55313 550.03436 309.14688 550.425Q308.75626 550.8156 308.75626 551.34686ZM308.42813 555.3156Q308.42813 555.76874 308.63126 556.1906Q308.85 556.6125 309.27188 556.84686Q309.69376 557.08124 310.17813 557.08124Q310.92813 557.08124 311.4125 556.59686Q311.9125 556.1125 311.9125 555.3625Q311.9125 554.59686 311.4125 554.09686Q310.9125 553.59686 310.14688 553.59686Q309.39688 553.59686 308.9125 554.09686Q308.42813 554.58124 308.42813 555.3156ZM314.35 553.5656Q314.35 552.03436 314.6625 551.1125Q314.975 550.175 315.58438 549.675Q316.20938 549.175 317.14688 549.175Q317.83438 549.175 318.35 549.45624Q318.88126 549.7375 319.225 550.26874Q319.56876 550.78436 319.75626 551.53436Q319.94376 552.28436 319.94376 553.5656Q319.94376 555.08124 319.63126 556.0031Q319.33438 556.925 318.70938 557.4406Q318.1 557.9406 317.14688 557.9406Q315.9125 557.9406 315.19376 557.05Q314.35 555.9875 314.35 553.5656ZM315.42813 553.5656Q315.42813 555.675 315.92813 556.3781Q316.42813 557.08124 317.14688 557.08124Q317.88126 557.08124 318.36563 556.3781Q318.86563 555.675 318.86563 553.5656Q318.86563 551.4406 318.36563 550.7531Q317.88126 550.05 317.13126 550.05Q316.4125 550.05 315.975 550.65936Q315.42813 551.4406 315.42813 553.5656Z" fill-rule="nonzero"/><path fill="#000000" d="M524.875 555.22186L524.875 554.15936L528.125 554.15936L528.125 555.22186L524.875 555.22186ZM534.46875 551.3156L533.4219 551.39374Q533.28125 550.76874 533.03125 550.4875Q532.59375 550.03436 531.96875 550.03436Q531.46875 550.03436 531.0781 550.3156Q530.59375 550.6906 530.2969 551.39374Q530.0156 552.08124 530.0 553.3625Q530.375 552.78436 530.9219 552.5031Q531.4844 552.22186 532.09375 552.22186Q533.1406 552.22186 533.875 553.0031Q534.625 553.78436 534.625 555.0031Q534.625 555.8156 534.2656 556.51874Q533.9219 557.20624 533.3125 557.58124Q532.7031 557.9406 531.9375 557.9406Q530.6094 557.9406 529.78125 556.97186Q528.9531 556.0031 528.9531 553.78436Q528.9531 551.28436 529.875 550.15936Q530.6719 549.175 532.03125 549.175Q533.0469 549.175 533.6875 549.7531Q534.34375 550.3156 534.46875 551.3156ZM530.1719 555.01874Q530.1719 555.5656 530.3906 556.0656Q530.625 556.55 531.03125 556.8156Q531.4531 557.08124 531.9219 557.08124Q532.5781 557.08124 533.0625 556.55Q533.5469 556.0031 533.5469 555.08124Q533.5469 554.1906 533.0625 553.675Q532.59375 553.15936 531.875 553.15936Q531.15625 553.15936 530.65625 553.675Q530.1719 554.1906 530.1719 555.01874ZM536.0 553.5656Q536.0 552.03436 536.3125 551.1125Q536.625 550.175 537.2344 549.675Q537.8594 549.175 538.7969 549.175Q539.4844 549.175 540.0 549.45624Q540.53125 549.7375 540.875 550.26874Q541.21875 550.78436 541.40625 551.53436Q541.59375 552.28436 541.59375 553.5656Q541.59375 555.08124 541.28125 556.0031Q540.9844 556.925 540.3594 557.4406Q539.75 557.9406 538.7969 557.9406Q537.5625 557.9406 536.84375 557.05Q536.0 555.9875 536.0 553.5656ZM537.0781 553.5656Q537.0781 555.675 537.5781 556.3781Q538.0781 557.08124 538.7969 557.08124Q539.53125 557.08124 540.0156 556.3781Q540.5156 555.675 540.5156 553.5656Q540.5156 551.4406 540.0156 550.7531Q539.53125 550.05 538.78125 550.05Q538.0625 550.05 537.625 550.65936Q537.0781 551.4406 537.0781 553.5656Z" fill-rule="nonzero"/><path fill="#000000" d="M746.525 555.22186L746.525 554.15936L749.775 554.15936L749.775 555.22186L746.525 555.22186ZM754.025 557.8L754.025 555.7375L750.3063 555.7375L750.3063 554.76874L754.22815 549.20624L755.0875 549.20624L755.0875 554.76874L756.2438 554.76874L756.2438 555.7375L755.0875 555.7375L755.0875 557.8L754.025 557.8ZM754.025 554.76874L754.025 550.90936L751.3375 554.76874L754.025 554.76874ZM757.65 553.5656Q757.65 552.03436 757.9625 551.1125Q758.275 550.175 758.8844 549.675Q759.5094 549.175 760.4469 549.175Q761.1344 549.175 761.65 549.45624Q762.1813 549.7375 762.525 550.26874Q762.8688 550.78436 763.0563 551.53436Q763.2438 552.28436 763.2438 553.5656Q763.2438 555.08124 762.9313 556.0031Q762.6344 556.925 762.0094 557.4406Q761.4 557.9406 760.4469 557.9406Q759.2125 557.9406 758.4938 557.05Q757.65 555.9875 757.65 553.5656ZM758.72815 553.5656Q758.72815 555.675 759.22815 556.3781Q759.72815 557.08124 760.4469 557.08124Q761.1813 557.08124 761.66565 556.3781Q762.16565 555.675 762.16565 553.5656Q762.16565 551.4406 761.66565 550.7531Q761.1813 550.05 760.4313 550.05Q759.7125 550.05 759.275 550.65936Q758.72815 551.4406 758.72815 553.5656Z" fill-rule="nonzero"/><path fill="#000000" d="M968.175 555.22186L968.175 554.15936L971.425 554.15936L971.425 555.22186L968.175 555.22186ZM977.84686 556.78436L977.84686 557.8L972.15936 557.8Q972.15936 557.425 972.28436 557.0656Q972.5031 556.4875 972.97186 555.925Q973.45624 555.3625 974.3625 554.6281Q975.76874 553.47186 976.2531 552.8Q976.7531 552.1281 976.7531 551.53436Q976.7531 550.90936 976.3 550.4875Q975.84686 550.05 975.1281 550.05Q974.3625 550.05 973.90936 550.5031Q973.45624 550.95624 973.4406 551.76874L972.3625 551.65936Q972.47186 550.4406 973.1906 549.8156Q973.925 549.175 975.15936 549.175Q976.39374 549.175 977.1125 549.8625Q977.83124 550.55 977.83124 551.5656Q977.83124 552.08124 977.6125 552.58124Q977.40936 553.0656 976.90936 553.6281Q976.425 554.175 975.3 555.1281Q974.34686 555.925 974.0656 556.22186Q973.8 556.5031 973.6281 556.78436L977.84686 556.78436ZM979.3 553.5656Q979.3 552.03436 979.6125 551.1125Q979.925 550.175 980.53436 549.675Q981.15936 549.175 982.09686 549.175Q982.78436 549.175 983.3 549.45624Q983.83124 549.7375 984.175 550.26874Q984.51874 550.78436 984.70624 551.53436Q984.89374 552.28436 984.89374 553.5656Q984.89374 555.08124 984.58124 556.0031Q984.28436 556.925 983.65936 557.4406Q983.05 557.9406 982.09686 557.9406Q980.8625 557.9406 980.14374 557.05Q979.3 555.9875 979.3 553.5656ZM980.3781 553.5656Q980.3781 555.675 980.8781 556.3781Q981.3781 557.08124 982.09686 557.08124Q982.83124 557.08124 983.3156 556.3781Q983.8156 555.675 983.8156 553.5656Q983.8156 551.4406 983.3156 550.7531Q982.83124 550.05 982.08124 550.05Q981.3625 550.05 980.925 550.65936Q980.3781 551.4406 980.3781 553.5656Z" fill-rule="nonzero"/></svg>